<?xml version="1.0" encoding="UTF-8" standalone="no"?>
<svg
   xmlns:dc="http://purl.org/dc/elements/1.1/"
   xmlns:cc="http://creativecommons.org/ns#"
   xmlns:rdf="http://www.w3.org/1999/02/22-rdf-syntax-ns#"
   xmlns:svg="http://www.w3.org/2000/svg"
   xmlns="http://www.w3.org/2000/svg"
   xmlns:sodipodi="http://sodipodi.sourceforge.net/DTD/sodipodi-0.dtd"
   xmlns:inkscape="http://www.inkscape.org/namespaces/inkscape"
   width="241.88977"
   height="241.88977"
   viewBox="0 0 64 64"
   version="1.1"
   id="svg2866"
   inkscape:version="1.0.1 (3bc2e813f5, 2020-09-07)"
   sodipodi:docname="favicon3.svg">
  <defs
     id="defs2860">
    <clipPath
       clipPathUnits="userSpaceOnUse"
       id="clipPath14">
      <rect
         style="fill:none;stroke:#000000;stroke-width:0.213884"
         id="rect16"
         width="41.81295"
         height="42.984875"
         x="11.225027"
         y="3.772512" />
    </clipPath>
  </defs>
  <sodipodi:namedview
     id="base"
     pagecolor="#ffffff"
     bordercolor="#666666"
     borderopacity="1.0"
     inkscape:pageopacity="0.0"
     inkscape:pageshadow="2"
     inkscape:zoom="0.7"
     inkscape:cx="385.75438"
     inkscape:cy="-11.551959"
     inkscape:document-units="mm"
     inkscape:current-layer="layer1"
     inkscape:document-rotation="0"
     showgrid="false"
     units="px"
     inkscape:window-width="1920"
     inkscape:window-height="1009"
     inkscape:window-x="-8"
     inkscape:window-y="-8"
     inkscape:window-maximized="1"
     showguides="true"
     inkscape:guide-bbox="true">
    <sodipodi:guide
       position="0.29123492,19.091459"
       orientation="1,0"
       id="guide18" />
    <sodipodi:guide
       position="63.800077,36.731497"
       orientation="1,0"
       id="guide20" />
  </sodipodi:namedview>
  <metadata
     id="metadata2863">
    <rdf:RDF>
      <cc:Work
         rdf:about="">
        <dc:format>image/svg+xml</dc:format>
        <dc:type
           rdf:resource="http://purl.org/dc/dcmitype/StillImage" />
        <dc:title></dc:title>
      </cc:Work>
    </rdf:RDF>
  </metadata>
  <g
     inkscape:label="Layer 1"
     inkscape:groupmode="layer"
     id="layer1">
    <path
       id="path17700-7-3-4-7-9-7-1"
       style="fill:#f48ba9;stroke-width:0.428708;fill-opacity:1"
       d="M 93.589844 9.3378906 C 87.271598 9.4839456 79.11259 13.83054 74.810547 19.679688 C 63.00401 35.732019 57.020095 62.146178 56.380859 101.07031 L 56.142578 115.85352 L 47.037109 123.52344 C 42.028608 127.74294 36.766179 132.05744 35.341797 133.11133 C 23.752591 141.68606 13.163456 146.89608 1.1015625 149.76172 L 1.1015625 159.96094 C 7.9357399 158.16858 15.122492 155.44513 22.505859 151.78711 C 32.45974 146.85549 38.81559 142.13199 50.005859 131.37305 C 53.230696 128.27251 55.93881 125.80913 56.015625 125.89844 C 56.093332 125.9879 56.373809 134.30887 56.648438 144.38867 C 57.133917 162.24802 57.177363 162.74447 58.091797 163.92969 C 59.372573 165.58991 62.111822 166.91211 64.277344 166.91211 C 66.1854 166.91211 68.765546 165.79925 69.933594 164.47266 C 70.322405 164.03089 71.535764 160.46026 72.623047 156.53711 C 76.808125 141.43666 85.646258 115.84945 87.933594 112.22461 C 89.844757 109.19578 90.929246 108.27895 91.755859 108.97656 C 93.795897 110.69829 94.82738 121.46558 94.099609 133.39844 C 93.823326 137.92156 93.567939 141.65724 93.529297 141.69141 C 93.49188 141.72504 91.78679 142.44303 89.742188 143.2793 C 80.987849 146.85996 75.625792 152.34279 75.064453 158.2832 C 74.336637 165.98526 82.288134 170.40343 89.960938 166.5625 C 95.424773 163.82743 99.959835 158.4443 104.51953 149.28906 L 106.90625 144.50195 L 109.95312 143.55859 C 116.51709 141.53128 120.48792 138.79705 127.01758 131.80859 C 131.88529 126.59881 132.06496 126.34262 135.63086 119.14453 C 139.67046 110.99019 140.7597 109.28502 142.56836 108.33398 C 144.3562 107.39386 145.61276 107.52617 151.06836 109.19922 C 156.75116 110.94157 159.91819 111.38312 162.43945 110.79492 C 163.77234 110.48387 164.16541 110.50055 163.94531 110.86523 C 163.782 111.1366 160.78507 115.64421 157.28906 120.875 C 150.03922 131.72258 146.0249 137.17693 141.23828 142.68555 C 137.76525 146.68236 137.33836 147.7598 138.51562 149.46875 C 139.56153 150.98731 141.68399 151.01332 145.19336 149.56055 C 151.40779 146.9884 155.90608 147.49198 159.04102 151.11328 C 161.1212 153.51635 162.40614 157.27756 163.18555 163.24219 C 164.19253 170.94942 164.78456 169.88321 157.45898 173.58008 C 139.15777 182.81582 129.11752 191.19895 124.57617 201.02734 C 123.41514 203.53986 123.27362 204.30718 123.10352 209.24219 C 122.89405 215.31638 123.35588 218.67342 124.86328 222.02148 C 126.78603 226.29181 130.25393 228.81521 135.22266 229.5625 C 136.57516 229.7678 138.15564 229.86958 138.74023 229.79297 C 139.32483 229.71545 140.94219 229.52028 142.33594 229.36328 C 145.36013 229.02203 150.8939 227.23449 155.41016 225.13477 C 157.98244 223.93889 159.52313 222.79407 162.5957 219.79688 C 167.79347 214.72666 171.0846 210.16096 174.07227 203.87695 C 178.17978 195.23736 180.20382 186.28275 180.70703 174.48242 L 180.98242 167.99414 L 184.19727 165.83984 C 190.65976 161.5173 196.17092 156.57526 208.03906 144.44531 C 224.03189 128.09971 232.67115 120.82816 241.13477 117.0957 L 241.13477 108.0625 C 235.69468 110.49235 229.94976 114.03744 222.70898 119.31641 C 216.20122 124.06093 210.91558 128.95105 195.46289 144.53125 C 187.26085 152.80102 180.43962 159.56445 180.29883 159.56445 C 180.15808 159.56445 179.72215 158.44916 179.33398 157.08203 C 176.48131 147.03841 169.23363 141.00392 158.57617 139.79492 L 155.66992 139.4668 L 159.5625 134.70703 C 168.00144 124.3962 175.26675 114.0443 179.87695 105.74414 C 182.44849 101.11433 182.88142 99.440471 181.91797 97.945312 C 180.97872 96.48792 178.9161 96.543868 175.82422 98.117188 C 174.48635 98.797758 172.36186 99.603967 171.10156 99.90625 C 168.0939 100.62755 160.96978 100.26235 154.08594 99.039062 C 146.91574 97.764493 140.5783 97.921361 139.02734 99.404297 C 138.44812 99.958122 135.56291 105.20731 132.61719 111.07422 C 126.7503 122.75901 124.28886 126.46243 119.83789 130.27148 C 117.07432 132.6365 109.29194 137.11445 108.80469 136.61914 C 108.67804 136.49037 108.76223 135.22633 108.99414 133.81445 C 109.63743 129.90518 109.52044 121.62435 108.76953 117.92969 C 107.34919 110.93792 104.00689 104.73349 100.39453 102.38867 C 96.037742 99.560657 93.456276 99.241737 89.826172 101.07812 C 86.262769 102.88079 84.022606 105.50904 81.064453 111.36719 C 77.43746 118.54987 73.728927 128.24852 72.296875 134.2793 C 72.184358 134.75501 72.072147 129.61793 72.042969 122.86719 L 71.994141 110.5957 L 75.732422 106.22266 C 92.364388 86.785105 103.16807 66.489323 107.29102 46.949219 C 109.0188 38.76009 108.90248 25.041978 107.05273 18.744141 C 105.82505 14.563785 101.00568 10.488591 96.166016 9.5429688 L 96.167969 9.5410156 C 95.357052 9.3825861 94.49245 9.3170256 93.589844 9.3378906 z M 95.746094 15.609375 C 98.21267 15.609375 100.29643 19.394688 101.53711 26.126953 C 102.18223 29.628795 102.17816 30.080962 101.35352 35.236328 C 98.767627 51.413434 93.795943 65.693421 85.689453 80.234375 C 84.62905 82.136486 81.38054 87.346546 78.476562 91.804688 C 75.572681 96.262726 73.121387 99.904297 73.023438 99.904297 C 72.774934 99.904297 72.798094 99.08719 73.248047 93.421875 C 73.46503 90.687523 73.848358 84.951729 74.099609 80.671875 C 75.605146 55.045624 77.896585 41.754524 83.029297 28.794922 C 85.497136 22.563802 92.203588 15.609375 95.746094 15.609375 z M 90.941406 150.24023 C 90.991466 150.23284 91.026847 150.23748 91.044922 150.25586 C 91.350383 150.56646 89.46832 155.61933 88.265625 157.72461 C 87.687875 158.73604 86.733969 159.95487 86.140625 160.42969 C 85.54719 160.90398 84.537885 161.29492 83.896484 161.29492 C 81.017123 161.29492 81.067323 157.75125 83.986328 155.0918 C 86.025767 153.23386 90.190507 150.35114 90.941406 150.24023 z M 162.72266 178.32422 C 163.17829 178.33367 162.87892 179.77781 161.69531 185.54492 C 158.21658 202.49531 155.25345 209.83232 149.73242 215.14648 C 146.70917 218.05649 144.72884 219.48703 141.95703 220.77734 C 139.65638 221.8486 136.42309 222.36926 134.56055 221.96484 C 132.76969 221.57572 130.40196 218.69028 129.81055 216.18359 C 129.17502 213.48992 129.46362 208.40624 130.44336 205.08594 C 131.3489 202.01656 134.7684 196.95325 138.0293 193.85156 C 141.49061 190.55912 144.88766 188.29268 153.83398 183.32617 C 157.8091 181.11948 161.49145 179.03139 162.01758 178.68359 C 162.33154 178.47636 162.57065 178.32235 162.72266 178.32617 L 162.72266 178.32422 z "
       transform="scale(0.26458333)" />
    <path
       style="fill:#86caed;stroke-width:0.113429;fill-opacity:1"
       d="M 9.8335666,63.865719 C 7.4588095,63.42464 5.3953848,62.317141 3.6592565,60.551803 2.1379788,59.004944 1.1732484,57.297531 0.59919927,55.136025 0.30493635,54.028034 0.30433898,54.017049 0.29758995,49.467209 l -0.006355,-4.558666 1.19080395,-0.431774 c 0.6549358,-0.237477 1.2979623,-0.466359 1.428952,-0.508633 l 0.2381607,-0.0769 0.034444,5.296065 0.034444,5.296065 0.3054477,0.915036 c 0.4420299,1.32422 1.0326783,2.277705 2.0547564,3.316979 0.9730428,0.989401 1.8514593,1.567499 3.2621088,2.146812 l 0.8998965,0.369558 11.680708,0.03063 11.680707,0.03063 0.355399,0.271078 c 1.918009,1.462945 4.88119,1.525367 8.280338,0.174421 0.466967,-0.185587 1.423474,-0.469344 2.125564,-0.630569 8.350664,-1.917581 14.38313,-7.908072 16.807024,-16.69007 l 0.347264,-1.258165 0.04449,-3.906877 0.04449,-3.906877 0.643916,-0.514396 c 0.683102,-0.545711 1.753033,-1.222547 1.932588,-1.222547 0.156511,0 0.143115,19.167861 -0.01423,20.31797 -0.432955,3.165214 -2.324362,6.241899 -4.953168,8.057123 -0.9478,0.654466 -2.552443,1.402254 -3.699067,1.723826 l -0.956138,0.268145 -21.709987,0.01964 c -17.469725,0.01577 -21.867413,-0.009 -22.5160448,-0.130104 z M 0.23458626,24.884706 c 0,-8.55066 0.0425786,-13.988538 0.11426329,-14.569195 C 0.87566812,6.0433406 3.8466788,2.2318293 7.7908593,0.76816087 9.8772256,-0.00608305 8.0018079,0.05429733 31.337244,0.01005888 45.397385,-0.01656432 52.824486,0.009529 53.498398,0.08798989 c 4.21399,0.49069395 7.85093,3.31052991 9.458573,7.33350171 0.157248,0.3935193 0.393376,1.1066204 0.524734,1.5846877 0.23206,0.8446015 0.23994,1.1153957 0.278591,9.5657667 l 0.03978,8.696557 -0.370752,0.136942 c -0.20392,0.07535 -0.771703,0.36961 -1.261739,0.653974 -0.490036,0.284364 -0.915631,0.51702 -0.94578,0.51702 -0.03012,0 -0.02542,-4.188398 0.01017,-9.307547 l 0.0652,-9.3075474 -0.388622,-1.1777921 C 60.441323,7.3674827 60.007999,6.5146745 59.304549,5.6268038 58.309264,4.3705896 56.942235,3.4475272 55.071698,2.7686486 L 54.171802,2.4420491 41.517022,2.4831471 28.862242,2.524245 28.194088,2.1108876 C 26.774414,1.2325806 25.371581,0.89313481 24.066908,1.1122205 23.161064,1.2643346 21.857471,1.8359191 21.018315,2.4489247 20.622652,2.7379673 20.139543,2.9438059 19.394925,3.140585 16.996591,3.7744238 14.454061,4.8456327 12.733071,5.9473549 8.3552615,8.749847 5.3765994,12.986476 3.9425888,18.45028 3.1962042,21.294077 3.2372577,20.710499 3.1671236,29.476523 l -0.06444,8.048722 -1.3416086,0.501137 c -0.7378815,0.275627 -1.38327207,0.501149 -1.43420121,0.501149 -0.0509673,0 -0.0926562,-6.139245 -0.0926562,-13.64276 z"
       id="path17700-3-3-1-2-7-8-3-34"
       sodipodi:nodetypes="cssccsscccssscccsssscccssssscsccccsssssscsssccssscccssssssscsscc" />
    <path
       id="path20844-5-2-5-2-1-8-1"
       style="fill:#f48ba9;stroke-width:0.194346;fill-opacity:1"
       d="m 42.423471,15.76873 -5.444474,4.224703 c -2.994508,2.323615 -5.48801,4.272417 -5.541001,4.330743 -0.05293,0.05838 0.07708,0.06282 0.289033,0.01012 0.212022,-0.05281 2.626893,-1.835393 5.366267,-3.961515 2.739397,-2.126148 5.084418,-3.906153 5.211094,-3.955576 0.126736,-0.04938 2.565722,1.72031 5.420102,3.932668 2.854383,2.212384 5.315593,4.022386 5.469444,4.022386 0.35764,0 0.924324,0.466291 -5.32568,-4.380928 z m 2.99e-4,0.960668 c -0.160214,0 -8.93341,6.720827 -9.629812,7.377075 -0.24004,0.2262 -0.10324,0.265848 0.915459,0.265848 0.919765,0 1.197727,-0.0661 1.197727,-0.285133 0,-0.296024 7.140381,-5.986056 7.511844,-5.986056 0.366432,0 7.382936,5.558298 7.476687,5.922842 0.07361,0.285906 0.300552,0.348347 1.264815,0.348347 0.999756,0 1.13302,-0.03964 0.892941,-0.265848 -0.696424,-0.656248 -9.469422,-7.377075 -9.629661,-7.377075 z m -7.37209,0.786083 -1.204516,0.0013 -3.758219,2.952247 c -2.067057,1.623717 -3.828444,3.021133 -3.914198,3.105481 -0.182222,0.179284 1.612031,0.05002 2.499119,-0.179891 0.581629,-0.150813 7.552142,-5.430325 7.572604,-5.735581 0.0063,-0.08079 -0.532288,-0.146284 -1.19479,-0.144758 z m 14.74403,1.51e-4 c -0.662526,-0.0013 -1.200443,0.06383 -1.195399,0.144619 0.0087,0.135358 6.429945,5.229184 7.06328,5.602883 0.153353,0.09053 0.858096,0.233164 1.566078,0.317133 v 1.65e-4 c 0.707958,0.08395 1.369574,0.164151 1.470262,0.17832 0.283778,0.04001 0.08942,-0.122191 -3.941299,-3.2885 l -3.758244,-2.952264 z m -12.763822,0.193554 c -0.07497,0 -1.862473,1.360858 -3.97262,3.024083 l -3.836738,3.024071 -1.638732,0.122954 c -0.901298,0.06762 -1.768784,0.151685 -1.92779,0.186805 -0.158994,0.03508 0.894198,0.07408 2.340387,0.08661 2.039486,0.01773 2.6517,-0.03647 2.728787,-0.240597 0.05467,-0.144837 1.462192,-1.342839 3.127849,-2.662251 2.062101,-1.633467 3.141185,-2.369011 3.381562,-2.305114 0.194138,0.05153 0.498015,-0.01385 0.675279,-0.145693 0.292271,-0.217298 0.272707,-0.27927 -0.209779,-0.665175 C 37.40746,17.900829 37.10672,17.7092 37.031888,17.7092 Z m 10.793316,0 c -0.08008,0 -0.385149,0.191618 -0.677768,0.425681 -0.4825,0.38588 -0.502052,0.447841 -0.209768,0.66515 0.177251,0.131763 0.481129,0.197329 0.675292,0.145709 0.240377,-0.06383 1.319275,0.671647 3.381412,2.305114 1.665657,1.319399 3.073166,2.517398 3.127823,2.66225 0.07722,0.204242 0.689464,0.258211 2.728925,0.240585 2.854804,-0.0247 2.942603,-0.08358 0.408637,-0.273686 l -1.642605,-0.123343 -3.823164,-3.023755 c -2.102762,-1.663049 -3.888644,-3.023755 -3.968784,-3.023755 z m -6.365173,2.351689 c -0.765342,0 -0.770922,0.0051 -0.770922,0.751286 0,0.413005 0.04085,0.792301 0.09066,0.84318 0.04981,0.05052 0.396707,0.05572 0.77096,0.01012 0.648578,-0.07699 0.68036,-0.116495 0.68036,-0.843181 0,-0.758882 -0.0024,-0.76258 -0.770923,-0.76258 z m 1.831088,0 c -0.656723,0 -0.674692,0.02051 -0.674692,0.771509 0,0.723528 0.03898,0.776434 0.626398,0.850563 0.344513,0.04356 0.64803,0.0932 0.674519,0.110425 0.0264,0.01709 0.04832,-0.365531 0.04832,-0.850564 0,-0.877206 -0.0024,-0.88193 -0.674518,-0.88193 z m 0.662166,2.07361 c -0.121042,-0.0051 -0.375636,0.01012 -0.656313,0.04432 -0.648578,0.07699 -0.680545,0.11662 -0.680545,0.843333 0,0.736242 0.02255,0.762415 0.654318,0.762415 0.624033,0 0.657794,-0.03673 0.728829,-0.794086 0.04097,-0.436735 0.05281,-0.816157 0.02628,-0.84318 -0.0075,-0.0064 -0.03225,-0.01012 -0.07247,-0.01338 z m -3.264176,0.08218 v 0.783906 0.783904 h 0.770922 0.770909 v -0.783904 -0.783906 h -0.770909 z"
       inkscape:export-filename="/home/doex/Pictures/path17700.png"
       inkscape:export-xdpi="96"
       inkscape:export-ydpi="96" />
  </g>
</svg>
